#!OML:ASF I:\golf\golf\golf 2\Subject 1\2002-09-07\Subject1.ASF
:FULLY-SPECIFIED
:DEGREES
322
root -7.16198 18.0586 -2.27097 -174.906 18.1794 -179.809
lowerback -5.82403 8.25717 15.7509
upperback -5.66201 14.1944 12.4714
thorax -2.98871 8.09641 5.24152
lowerneck -1.50551 -21.2523 -0.199576
upperneck 16.0349 -34.1354 2.19609
head 5.68771 -17.383 -1.27377
rclavicle 1.59028e-014 -3.18055e-015
rhumerus 71.3278 49.6991 -60.4332
rradius 46.0737
rwrist 15.7715
rhand -14.0612 19.9437
rfingers 7.12502
rthumb 12.0701 -9.68815
lclavicle 1.59028e-014 -3.18055e-015
lhumerus 23.6121 -1.25455 83.5709
lradius 61.3101
lwrist 48.4311
lhand 145.012 196.446
lfingers 7.12502
lthumb -188.133 -133.731
rfemur 8.84887 -3.3658 10.7939
rtibia 29.892
rfoot 10.7291 -32.1712
rtoes 23.9734
lfemur -17.8595 -12.2592 -21.2171
ltibia 18.4439
lfoot 20.1544 -41.6119
ltoes 39.7635
323
root -7.15184 18.0589 -2.32803 -174.692 17.0565 -179.497
lowerback -5.59097 8.52154 15.9789
upperback -6.07553 14.6992 12.0636
thorax -3.41928 8.30066 4.63545
lowerneck -1.45477 -21.6445 0.205626
upperneck 14.9744 -34.5692 3.05467
head 5.44132 -17.5164 -1.03527
rclavicle -4.77083e-015 0
rhumerus 74.523 48.8 -59.2253
rradius 47.2736
rwrist 15.3646
rhand -15.2876 20.5261
rfingers 7.12502
rthumb 10.8873 -9.17168
lclavicle -4.77083e-015 0
lhumerus 25.5355 0.480544 83.0328
lradius 63.6287
lwrist 44.775
lhand 144.766 196.077
lfingers 7.12502
lthumb -188.371 -134.109
rfemur 9.36406 -3.71211 11.4255
rtibia 29.3228
rfoot 10.6622 -33.0235
rtoes 25.8328
lfemur -18.0593 -12.5991 -20.9438
ltibia 18.7861
lfoot 21.6306 -41.6306
ltoes 41.3883
324
root -7.14274 18.0553 -2.39093 -174.564 15.8808 -179.293
lowerback -5.43142 8.75561 16.0769
upperback -6.48493 15.1417 11.6469
thorax -3.81906 8.47691 4.09562
lowerneck -1.23051 -22.0207 0.663859
upperneck 13.6579 -34.9089 3.94303
head 5.08557 -17.6263 -0.741395
rclavicle 9.54166e-015 -2.8625e-014
rhumerus 77.9193 47.8308 -57.9194
rradius 48.2354
rwrist 15.0513
rhand -16.4833 21.1521
rfingers 7.12502
rthumb 9.73391 -8.60295
lclavicle 9.54166e-015 -2.8625e-014
lhumerus 27.4766 2.19916 82.575
lradius 65.909
lwrist 41.7692
lhand 145.068 195.788
lfingers 7.12502
lthumb -188.079 -134.386
rfemur 9.99555 -4.13101 11.9139
rtibia 28.6584
rfoot 10.4653 -33.8849
rtoes 27.3636
lfemur -18.1925 -12.9339 -20.808
ltibia 19.143
lfoot 22.4796 -42.232
ltoes 41.9455
325
root -7.13374 18.0516 -2.45652 -174.46 14.685 -179.199
lowerback -5.46975 8.92145 15.988
upperback -6.70114 15.4078 11.3593
thorax -3.9659 8.59598 3.83618
lowerneck -1.52082 -22.3216 1.00503
upperneck 12.1999 -34.996 4.48724
head 5.25008 -17.6192 -0.606609
rclavicle -2.70347e-014 6.36111e-015
rhumerus 81.9396 46.9127 -55.8488
rradius 49.2183
rwrist 14.7038
rhand -17.8737 21.8055
rfingers 7.12502
rthumb 8.39223 -8.00781
lclavicle -2.70347e-014 6.36111e-015
lhumerus 29.6915 4.10949 82.3087
lradius 68.0545
lwrist 39.4255
lhand 145.605 195.722
lfingers 7.12502
lthumb -187.561 -134.433
rfemur 10.6807 -4.57713 12.3011
rtibia 27.9022
rfoot 10.9264 -34.4299
rtoes 27.08
lfemur -18.3357 -13.3145 -20.7906
ltibia 19.5168
lfoot 22.9172 -43.0386
ltoes 41.8516
326
root -7.12307 18.0514 -2.52213 -174.283 13.5175 -178.958
lowerback -5.20999 9.09628 16.1057
upperback -7.16006 15.8542 11.0146
thorax -4.49357 8.77977 3.33079
lowerneck -1.78641 -22.5749 0.932765
upperneck 11.5112 -35.1835 5.11212
head 5.18701 -17.6562 -0.442443
rclavicle -9.85972e-014 1.11319e-013
rhumerus 85.1403 45.9708 -54.3107
rradius 50.3292
rwrist 14.2814
rhand -19.1252 22.4439
rfingers 7.12502
rthumb 7.18434 -7.41419
lclavicle -9.85972e-014 1.11319e-013
lhumerus 31.7174 5.42677 81.8419
lradius 70.1627
lwrist 37.128
lhand 145.818 195.997
lfingers 7.12502
lthumb -187.355 -134.151
rfemur 11.3431 -4.86843 12.9263
rtibia 27.107
rfoot 11.0402 -35.1274
rtoes 27.3551
lfemur -18.5117 -13.6497 -20.6011
ltibia 19.8792
lfoot 23.7581 -43.3984
ltoes 42.4182
